<?xml version="1.0" encoding="utf-8"?>
<!-- Generator: Adobe Illustrator 16.0.0, SVG Export Plug-In . SVG Version: 6.00 Build 0)  -->
<!DOCTYPE svg PUBLIC "-//W3C//DTD SVG 1.1//EN" "http://www.w3.org/Graphics/SVG/1.1/DTD/svg11.dtd">
<svg version="1.1" xmlns="http://www.w3.org/2000/svg" xmlns:xlink="http://www.w3.org/1999/xlink" x="0px" y="0px" width="560px"
	 height="560px" viewBox="0 0 560 560" enable-background="new 0 0 560 560" xml:space="preserve">
<g id="Outline_1_">
	<path fill="#FFFFFF" stroke="#FFFFFF" stroke-width="8" d="M420.326,262.569c-0.584-14.776-7.857-33.962-39.194-41.453
		c-3.963-0.947-8.103-1.646-12.313-2.173c0.854-4.456,1.508-8.972,2.127-13.263c0.309-2.144,0.604-4.198,0.909-6.096
		c0.839-5.217,1.986-10.373,3.202-15.831c1.256-5.641,2.554-11.473,3.519-17.514c0.682-4.27,1.448-8.507,2.259-12.993
		c3.822-21.137,7.774-42.993,2.169-65.619c-3.875-15.638-15.575-29.212-32.946-38.222c-14.523-7.533-31.97-11.448-47.854-10.747
		c-30.718,1.358-60.585,5.672-89.469,9.843c-7.07,1.021-14.38,2.077-21.679,3.085c-8.436,1.165-17.998,2.486-26.606,8.015
		c-4.697,3.016-8.018,6.734-10.949,10.015c-1.291,1.445-2.51,2.811-3.737,3.992c-15.285,14.713-17.094,28.291-15.052,46.771
		c4.521,40.919,18.666,81.519,32.027,114.494c-5.651,1.808-11.232,3.803-16.722,6.03c-14.251,5.782-43.907,17.814-37.496,51.906
		c3.88,20.635,32.167,35.207,49.935,36.174c5.536,0.29,10.229-3.927,10.529-9.442c0.094-1.728-0.257-3.376-0.952-4.836
		c3.747,1.072,7.563,2.186,11.336,2.742c2.529,4.585,5.47,8.949,9.014,12.299c17.029,16.095,38.502,25.906,63.051,28.983
		c-0.089,12.827,0.187,25.144,0.482,35.738c0.186,6.667,0.8,13.24,1.395,19.598c0.66,7.064,1.284,13.737,1.357,20.45
		c0.039,3.564,0.311,7.284,0.574,10.882c0.617,8.45,1.256,17.187-1.12,23.334c-0.916,2.37-2.536,4.876-4.25,7.528
		c-1.146,1.771-2.33,3.604-3.447,5.599c-3.74,6.677-6.253,13.686-8.025,19.045c-4.133,12.504-7.244,26.202-9.79,43.107
		c-0.822,5.462,2.938,10.556,8.399,11.378c0.505,0.076,1.006,0.112,1.501,0.112c4.865,0,9.13-3.556,9.876-8.512
		c2.373-15.758,5.233-28.407,9.002-39.809c1.584-4.792,3.593-10.386,6.484-15.548c0.808-1.442,1.773-2.936,2.794-4.516
		c1.857-2.872,3.931-6.088,5.534-9.783c3.427,3.53,6.28,8.402,9.392,13.727c0.47,0.804,0.938,1.605,1.408,2.401
		c3.859,6.537,7.419,13.795,10.861,20.813l0.658,1.344c2.613,5.324,4.84,10.095,6.806,14.584c0.591,1.348,1.125,3.189,1.691,5.14
		c1.33,4.583,2.986,10.288,7.013,14.809c1.976,2.218,4.718,3.349,7.472,3.349c2.366,0,4.741-0.835,6.647-2.532
		c4.124-3.674,4.489-9.995,0.816-14.119c-1.017-1.141-1.973-4.436-2.741-7.082c-0.721-2.48-1.465-5.045-2.578-7.587
		c-2.084-4.757-4.43-9.785-7.171-15.372l-0.656-1.338c-3.61-7.361-7.343-14.974-11.598-22.179c-0.455-0.77-0.907-1.545-1.361-2.321
		c-5.504-9.418-11.669-19.938-23.063-25.545c-0.059-3.926-0.339-7.795-0.608-11.484c-0.252-3.445-0.49-6.7-0.522-9.645
		c-0.083-7.535-0.774-14.935-1.443-22.092c-0.59-6.315-1.147-12.28-1.315-18.294c-0.283-10.174-0.546-21.957-0.478-34.175
		c2.199-0.042,4.411-0.115,6.646-0.255c21.13-1.321,39.438-16.194,49.474-32.634c10.458-1.021,21.171-2.009,31.479-4.437
		c0.121,1.646,0.647,3.285,1.621,4.761c1.922,2.915,5.108,4.495,8.356,4.495c1.89,0,3.802-0.535,5.497-1.653l1.516-0.998
		c11.216-7.382,23.928-15.748,31.969-27.822C420.173,288.907,420.832,275.369,420.326,262.569z"/>
</g>
<g id="Original_Tings">
	<g id="BG_Whites">
		<path fill="#FFFFFF" d="M178,265.333c12.505,15.474,8.537,31.286,16.018,47.482c8.562,18.535,29.739,26.808,48.814,30.372
			c19.565,3.655,40.901,8.502,58.288-3.305c15.739-10.688,25.28-23.494,30.729-41.894c3.527-11.912,10.651-30.092,8.817-42.656
			c-1.705-11.684-14.699-14.213-24.766-17.482c-12.42-4.033-27.035-7.117-40.067-7.703c-17.604-0.792-32.906,2.17-49.81,3.886
			c-10.622,1.079-22.776-2.167-32.011,3.304c-11.027,6.533-17.214,13.242-17.912,25.212c0.88,0.212,1.688,0.616,2.566,0.783"/>
		<path fill="#FFFFFF" d="M157.25,164.5c0.401,5.219,2.96,10.813,4.005,16.041c0.599,2.995,1.424,5.962,2.001,8.964
			c0.963,5.008,2.663,9.833,4.218,14.707c2.391,7.494,5.634,15.314,8.844,22.448c1.713,3.809,4.743,7.769,8.73,9.16
			c6.871,2.397,11.957-0.175,18.635-1.031c7.714-0.989,15.64-0.578,23.333-1.594c6.263-0.828,12.672-0.373,18.968-0.883
			c8.841-0.717,17.699-0.773,26.516-1.549c15.026-1.322,30.136,0.49,45.231-0.013c10.445-0.348,22.281-0.308,32.206-3.813
			c4.886-1.726,6.474-3.561,8.066-8.486c1.283-3.969,0.502-8.264,0.739-12.399c0.458-7.979,3.266-15.592,4.567-23.383
			c0.969-5.798,1.737-11.607,2.714-17.41c1.485-8.836,4.466-17.083,4.475-26.077c0.002-2.295-0.037-4.046-1.006-6.185
			c-0.37-0.819-0.529-1.595-1.179-2.236c-0.685-0.677-4.981-1.162-5.356-1.241c-3.092-0.651-6.145-1.375-9.267-1.836
			c-16.184-2.391-32.782-3.432-49.144-3.434c-17.641-0.002-35.401,1.897-52.994,3.251c-18.041,1.388-36.05,2.278-53.999,4.457
			c-4.036,0.49-8.642,0.364-12.31,2.296c-5.796,3.052-11.865,6.597-16.799,10.982c-4.108,3.651-6.144,7.614-7.503,12.777
			c-0.624,2.37-1.346,4.329-3.444,5.737"/>
	</g>
	<g id="Colours">
		<path fill="#FF0000" d="M156.25,172.75c2.086-4.4,7.214-5.975,11.444-7.262c5.494-1.672,11.004-3.104,16.63-4.256
			c11.425-2.339,22.976-3.834,34.537-5.316c6.483-0.831,12.967-1.659,19.427-2.657c12.559-1.94,25.065-4.208,37.725-5.417
			c12.676-1.209,25.433-1.692,38.149-2.294c10.708-0.507,21.456-0.18,32.158,0.33c6.821,0.325,18.938,3.26,22.628-4.617
			c2.16-4.611,2.15-10.253,2.899-15.215c0.851-5.63,1.373-11.33,1.183-17.029c-0.36-10.798-3.542-21.306-10.124-29.963
			c-6.99-9.195-16.987-15.635-27.642-19.821c-11.987-4.71-24.891-6.731-37.7-7.406c-13.464-0.709-26.981,0.028-40.393,1.264
			c-13.49,1.243-26.97,2.96-40.289,5.454c-12.615,2.362-25.28,5.438-37.015,10.744c-10.222,4.623-19.84,11.172-26.276,20.521
			c-6.347,9.218-8.785,20.293-8.591,31.369c0.228,13.051,3.614,25.861,7.275,38.307c0.709,2.412,1.632,4.756,2.31,7.177
			c0.379,1.355,0.498,4.606,1.914,5.337"/>
		<path fill="#B3B3B3" d="M185,317.666c-6.111-0.616-12.388-2.986-18.321-4.4c-10.242-2.44-20.182-8.667-28.606-15.018
			c-3.966-2.989-8.049-5.608-7.756-10.889c0.212-3.83,1.344-7.586,2.132-11.325c0.983-4.661,2.596-9.195,5.306-13.144
			c10.198-14.861,29.858-16.768,45.875-20.656c9.041-2.195,18.105-4.299,27.228-6.13c18.802-3.774,37.783-6.113,56.967-6.456
			c19.003-0.34,38.012,0.601,57.019,0.485c18.019-0.109,38.114-2.171,55.379,4.117c8.207,2.989,14.819,8.416,19.202,15.986
			c2.328,4.02,3.986,8.393,5.367,12.818c3.457,11.072,5.309,19.491-0.465,30.322c-5.713,10.72-14.967,19.194-26.121,24.083
			c-14.779,6.477-31.276,7.882-47.151,9.435c3.519-16.454,7.87-33.27,8.694-50.139c1.727-35.335-40.05-34.487-64.928-34.719
			c-11.225-0.105-22.462,0.466-33.652,1.32c-14.69,1.122-30.146,2.03-43.85,7.988c-18.174,7.902-19.141,24.995-13.896,42.283
			c1.241,4.09,2.727,7.951,3.501,12.129c0.83,4.476-0.972,7.347-1.258,11.574"/>
	</g>
	<g id="Outline">
		<path fill="none" stroke="#000000" stroke-width="20" d="M181.333,243.998c-16.588-39.389-32.024-82.56-36.682-124.716
			c-1.88-17.017,0.038-26.908,12.048-38.468c4.394-4.23,7.767-9.337,13.155-12.797c6.782-4.356,14.643-5.428,22.665-6.536
			c36.559-5.05,72.448-11.164,110.127-12.831c26.964-1.192,63.642,13.089,70.651,41.383c6.206,25.047-0.71,50.295-4.596,74.63
			c-1.815,11.373-4.93,22.203-6.719,33.335c-1.71,10.643-3.149,26.056-7.982,35.333"/>
		<path fill="none" stroke="#000000" stroke-width="20" stroke-linecap="round" d="M163,318.998
			c-14.738-0.802-37.872-13.255-40.651-28.036c-4.29-22.812,11.178-32.577,31.427-40.792
			c48.939-19.855,105.811-21.554,157.929-21.838c29.104-0.159,96.921-8.614,98.629,34.632c0.467,11.809-0.1,22.825-6.667,32.686
			c-7.255,10.894-19.937,18.938-30.667,26.016"/>
		<path fill="none" stroke="#000000" stroke-width="20" stroke-linecap="round" d="M180.5,270
			c-0.379,9.473,1.538,20.903,5.375,29.525c3.333,7.491,7.704,17.59,13.379,22.953c22.586,21.348,51.688,28.929,82.201,27.021
			c19.861-1.242,38.503-18.048,45.671-35.986c6.568-16.441,12.375-34.102,12.375-52.014"/>
		<path fill="none" stroke="#000000" stroke-width="20" stroke-linecap="round" d="M265.5,353
			c-0.22,13.722,0.031,27.471,0.414,41.188c0.375,13.457,2.608,26.747,2.755,40.217c0.131,11.9,3.167,26.588-1.218,37.931
			c-2.001,5.18-5.604,9.596-8.301,14.41c-3.071,5.481-5.287,11.344-7.254,17.296c-4.489,13.581-7.27,27.337-9.396,41.458"/>
		<path fill="none" stroke="#000000" stroke-width="20" stroke-linecap="round" d="M321.5,543.5
			c-3.915-4.396-4.619-11.846-7.012-17.309c-2.192-5.006-4.571-10.054-6.988-14.979c-3.736-7.613-7.577-15.538-11.887-22.836
			C289.529,478.076,283.777,466.896,272,463"/>
	</g>
	<g id="Moon_and_Stars">
		<path fill="#FFFFFF" d="M185.5,100.625c-1.139-0.422-2.292,0.181-3.329,0.614c-3.449,1.44-5.989,4.123-7.982,7.239
			c-1.451,2.268-1.876,4.923-2.312,7.531c-0.441,2.644-0.326,5.127,0.249,7.737c0.264,1.198,0.467,2.345,1.025,3.451
			c0.738,1.464,1.515,2.984,2.532,4.276c1.859,2.362,5.151,3.899,7.745,5.294c1.813,0.975,3.908,0.863,5.878,1.233
			c1.541,0.289,4.174,0.756,5.118-0.941c0.27-0.485,0.378-1.178,0.266-1.765c-0.266-1.384-2.473-1.364-3.466-1.909
			c-0.713-0.391-1.357-0.893-2.008-1.377c-1.92-1.432-3.958-2.488-5.481-4.405c-1.412-1.777-2.467-3.957-3.071-6.141
			c-0.326-1.179-0.542-2.446-0.589-3.67c-0.058-1.524,0.086-3.208,0.466-4.688c0.31-1.209,0.81-2.5,1.469-3.565
			c1.362-2.201,4.207-3.877,4.74-6.529c0.245-1.218-0.035-1.928-1.124-2.447"/>
		<path fill="#FFFFFF" d="M197.667,101.279c-0.2-0.091-0.131-1.002-0.12-1.233c0.031-0.657,0.309-1.404,0.992-1.645
			c0.339-0.12,0.646,0.061,0.881,0.299c0.244,0.248,0.39,0.583,0.644,0.819c0.25,0.233,0.549,0.213,0.869,0.164
			c0.655-0.102,2.134-0.565,2.486,0.297c0.153,0.375-0.016,0.831-0.082,1.207c-0.088,0.505-0.059,0.979,0.122,1.461
			c0.241,0.643,1.438,2.208,0.572,2.792c-0.42,0.283-1.053,0.156-1.515,0.085c-0.53-0.083-1.096-0.215-1.623-0.044
			c-0.524,0.17-0.898,0.605-1.264,0.993c-0.244,0.258-0.666,0.81-1.083,0.745c-0.426-0.066-0.492-0.74-0.537-1.068
			c-0.071-0.508-0.033-1.116-0.27-1.584c-0.412-0.813-1.728-0.331-2.377-0.892c-0.939-0.811,0.061-1.939,0.917-2.228
			c0.265-0.089,0.525-0.173,0.804-0.204c0.201-0.023,0.448-0.011,0.564-0.214"/>
		<path fill="#FFFFFF" d="M210.75,106.229c-0.208-0.306-0.07-0.973-0.001-1.308c0.09-0.439,0.111-0.872,0.349-1.255
			c0.698-1.124,1.778,0.326,2.573,0.604c0.611,0.214,1.096-0.275,1.68-0.38c0.259-0.046,0.504-0.021,0.735,0.126
			c0.279,0.178,0.374,0.321,0.419,0.637c0.07,0.493,0.053,0.943-0.069,1.427c-0.091,0.361-0.236,0.778-0.057,1.144
			c0.1,0.203,0.265,0.254,0.454,0.373c0.28,0.178,0.518,0.518,0.647,0.816c0.157,0.362,0.062,0.854-0.188,1.132
			c-0.294,0.327-0.936,0.468-1.373,0.377c-0.55-0.114-1.211-0.423-1.769-0.284c-0.289,0.072-0.592,0.451-0.79,0.656
			c-0.136,0.141-0.31,0.302-0.428,0.453c-0.146,0.186-0.242,0.386-0.448,0.542c-0.189,0.145-0.409,0.281-0.607,0.4
			c-0.66,0.396-1.333-0.098-1.519-0.755c-0.117-0.412-0.045-0.896-0.128-1.32c-0.056-0.283-0.099-0.517-0.354-0.658
			c-0.262-0.145-0.495-0.227-0.714-0.437c-0.355-0.341-0.651-0.713-0.457-1.214c0.309-0.797,1.037-0.99,1.774-1.136
			c0.075-0.015,0.138-0.038,0.209-0.047"/>
		<path fill="#FFFFFF" d="M212.291,118.916c-0.127-0.783-0.393-2.446,0.595-2.775c0.676-0.226,1.191,0.639,1.652,1.008
			c0.554,0.444,1.014,0.444,1.709,0.304c0.515-0.104,1.333-0.234,1.57,0.421c0.206,0.57-0.447,1.102-0.673,1.563
			c-0.207,0.422-0.361,0.864-0.187,1.333c0.103,0.275,0.314,0.453,0.557,0.626c0.308,0.22,0.554,0.507,0.757,0.836
			c0.125,0.203,0.195,0.42,0.185,0.663c-0.009,0.226-0.093,0.285-0.292,0.396c-0.208,0.116-0.414,0.209-0.646,0.271
			c-0.381,0.101-0.524,0.068-0.87-0.128c-0.368-0.208-0.634-0.356-1.052-0.409c-0.364-0.046-0.529-0.113-0.775,0.178
			c-0.279,0.331-0.633,0.747-0.987,1.002c-0.235,0.169-0.802,0.624-1.126,0.606c-0.36-0.02-0.653-0.453-0.726-0.771
			c-0.053-0.228-0.072-0.49-0.087-0.725c-0.013-0.201,0.012-0.395,0.021-0.595c0.015-0.305-0.073-0.413-0.265-0.67
			c-0.414-0.558-1.252-0.36-1.752-0.796c-0.632-0.551-0.069-1.149,0.357-1.567c0.233-0.229,0.501-0.478,0.805-0.606
			c0.361-0.152,0.915-0.376,1.312-0.375"/>
		<path fill="#FFFFFF" d="M198.719,122.563c-0.201-0.667,0.296-2.589,1.181-2.563c0.479,0.015,0.721,0.406,1.069,0.658
			c0.141,0.102,0.262,0.128,0.426,0.162c0.432,0.088,0.941,0.218,1.387,0.176c0.717-0.067,2.063-0.601,2.094,0.598
			c0.009,0.333-0.157,0.61-0.273,0.914c-0.169,0.445-0.311,0.928-0.383,1.397c-0.125,0.813,0.954,1.274,0.814,2.227
			c-0.133,0.903-1.264,1.802-2.144,1.422c-0.443-0.191-0.894-0.5-1.39-0.516c-0.495-0.015-0.797,0.478-1.065,0.842
			c-0.299,0.405-1.059,0.759-1.551,0.613c-0.396-0.118-0.583-0.638-0.688-0.987c-0.087-0.291-0.147-0.619-0.156-0.925
			c-0.013-0.447,0.369-1.135-0.226-1.364c-0.238-0.092-0.536-0.02-0.787-0.084c-0.118-0.03-0.246-0.094-0.37-0.134
			c-0.457-0.147-0.44-0.287-0.538-0.718c-0.082-0.359-0.047-0.446,0.22-0.689c0.294-0.267,0.517-0.472,0.883-0.664
			c0.498-0.261,0.967-0.413,1.498-0.522"/>
		<path fill="#FFFFFF" d="M189.219,113.375c0-0.68-0.098-1.391,0.007-2.056c0.132-0.842,1.068-1.333,1.89-0.915
			c0.414,0.21,0.649,0.611,1.075,0.785c0.473,0.193,0.873-0.007,1.348-0.118c0.657-0.154,2.328-0.081,2.151,0.992
			c-0.087,0.531-0.506,1.191-0.805,1.634c-0.156,0.231-0.293,0.423-0.321,0.715c-0.046,0.49,0.188,0.662,0.525,0.973
			c0.415,0.381,1.04,1.364,0.475,1.898c-0.646,0.611-1.385,0.191-1.999-0.166c-0.277-0.161-0.591-0.281-0.909-0.334
			c-0.561-0.094-0.63,0.159-0.979,0.564c-0.237,0.276-0.428,0.575-0.584,0.906c-0.181,0.382-0.401,0.554-0.864,0.624
			c-0.3,0.045-0.718,0.059-0.878-0.213c-0.144-0.245-0.057-0.615-0.069-0.891c-0.023-0.517-0.067-1.185-0.464-1.548
			c-0.382-0.351-0.644-0.205-1.105-0.225c-0.359-0.015-0.844-0.169-1.151-0.366c-0.62-0.397-0.24-1.258,0.151-1.698
			c0.301-0.339,0.688-0.404,1.107-0.498c0.494-0.111,0.986-0.211,1.462-0.345"/>
	</g>
</g>
</svg>
